<?xml version="1.0" encoding="utf-8"?><!DOCTYPE svg  PUBLIC '-//W3C//DTD SVG 1.1//EN'  'http://www.w3.org/Graphics/SVG/1.1/DTD/svg11.dtd'><svg viewBox="0 0 95 81" xmlns="http://www.w3.org/2000/svg" xmlns:xlink="http://www.w3.org/1999/xlink"><style>:root>svg{display:none}:root>svg:target{display:block}</style><svg fill="none" viewBox="0 0 48 48" id="Facebook_footer" xmlns="http://www.w3.org/2000/svg"><g clip-path="url(#aclip0_148_761)"><path d="M48 24C48 10.745 37.255 0 24 0S0 10.745 0 24c0 11.979 8.776 21.908 20.25 23.708v-16.77h-6.094V24h6.094v-5.288c0-6.014 3.583-9.337 9.065-9.337 2.625 0 5.372.469 5.372.469v5.906h-3.026c-2.981 0-3.911 1.85-3.911 3.75V24h6.656l-1.064 6.938H27.75v16.77C39.224 45.908 48 35.978 48 24z" fill="#fff"/></g><defs><clipPath id="aclip0_148_761"><path fill="#fff" d="M0 0h48v48H0z"/></clipPath></defs></svg><svg fill="none" viewBox="0 0 48 48" id="Instagram_footer" xmlns="http://www.w3.org/2000/svg"><g clip-path="url(#bclip0_148_762)" fill="#fff"><path d="M24 4.322c6.413 0 7.172.028 9.694.14 2.343.104 3.61.497 4.453.825 1.116.432 1.922.957 2.756 1.791.844.844 1.36 1.64 1.79 2.756.329.844.723 2.12.826 4.454.112 2.53.14 3.29.14 9.693 0 6.413-.028 7.172-.14 9.694-.103 2.344-.497 3.61-.825 4.453-.431 1.116-.957 1.922-1.79 2.756-.845.844-1.642 1.36-2.757 1.791-.844.328-2.119.722-4.453.825-2.532.112-3.29.14-9.694.14-6.413 0-7.172-.028-9.694-.14-2.343-.103-3.61-.497-4.453-.825-1.115-.431-1.922-.956-2.756-1.79-.844-.844-1.36-1.641-1.79-2.757-.329-.844-.723-2.119-.826-4.453-.112-2.531-.14-3.29-.14-9.694 0-6.412.028-7.172.14-9.694.103-2.343.497-3.609.825-4.453.431-1.115.957-1.921 1.79-2.756.845-.844 1.642-1.36 2.757-1.79.844-.329 2.119-.722 4.453-.825 2.522-.113 3.281-.141 9.694-.141zM24 0c-6.516 0-7.331.028-9.89.14-2.55.113-4.304.526-5.822 1.116-1.585.619-2.926 1.435-4.257 2.775-1.34 1.332-2.156 2.672-2.775 4.247C.666 9.806.253 11.55.141 14.1.028 16.669 0 17.484 0 24s.028 7.331.14 9.89c.113 2.55.526 4.304 1.116 5.822.619 1.585 1.435 2.925 2.775 4.257a11.732 11.732 0 004.247 2.765c1.528.591 3.272 1.003 5.822 1.116 2.56.112 3.375.14 9.89.14 6.516 0 7.332-.028 9.891-.14 2.55-.113 4.303-.525 5.822-1.116a11.732 11.732 0 004.247-2.765 11.732 11.732 0 002.766-4.247c.59-1.528 1.003-3.272 1.115-5.822.113-2.56.14-3.375.14-9.89 0-6.516-.027-7.332-.14-9.891-.112-2.55-.525-4.303-1.115-5.822-.591-1.594-1.407-2.935-2.747-4.266a11.732 11.732 0 00-4.247-2.765C38.194.675 36.45.262 33.9.15 31.331.028 30.516 0 24 0z"/><path d="M24 11.672c-6.806 0-12.328 5.522-12.328 12.328 0 6.806 5.522 12.328 12.328 12.328 6.806 0 12.328-5.522 12.328-12.328 0-6.806-5.522-12.328-12.328-12.328zm0 20.325a7.998 7.998 0 010-15.994 7.998 7.998 0 010 15.994zM39.694 11.184a2.879 2.879 0 11-2.878-2.878 2.885 2.885 0 012.878 2.878z"/></g><defs><clipPath id="bclip0_148_762"><path fill="#fff" d="M0 0h48v48H0z"/></clipPath></defs></svg><svg fill="none" viewBox="0 0 47 48" id="Mail_footer" xmlns="http://www.w3.org/2000/svg"><g clip-path="url(#cclip0_148_763)"><path d="M42.4 5.5H5.6c-2.53 0-4.577 2.07-4.577 4.6L1 37.7c0 2.53 2.07 4.6 4.6 4.6h36.8c2.53 0 4.6-2.07 4.6-4.6V10.1c0-2.53-2.07-4.6-4.6-4.6zm0 32.2H5.6v-23L24 26.2l18.4-11.5v23zM24 21.6L5.6 10.1h36.8L24 21.6z" fill="#fff"/></g><defs><clipPath id="cclip0_148_763"><path fill="#fff" transform="translate(0 .5)" d="M0 0h47v47H0z"/></clipPath></defs></svg><svg fill="none" viewBox="0 0 48 48" id="Telegram_footer" xmlns="http://www.w3.org/2000/svg"><g clip-path="url(#dclip0_148_766)"><path fill-rule="evenodd" clip-rule="evenodd" d="M48 24c0 13.255-10.745 24-24 24S0 37.255 0 24 10.745 0 24 0s24 10.745 24 24zm-23.14-6.282c-2.334.97-7 2.98-13.996 6.029-1.136.451-1.731.893-1.786 1.326-.091.73.823 1.018 2.069 1.41.17.052.345.108.525.166 1.225.398 2.874.864 3.73.883.778.017 1.646-.304 2.603-.961 6.537-4.413 9.912-6.643 10.124-6.692.15-.033.356-.076.496.049.14.124.127.36.112.424-.09.386-3.68 3.724-5.539 5.452-.579.538-.99.92-1.074 1.007-.188.196-.38.38-.564.558-1.138 1.098-1.992 1.92.047 3.265.98.645 1.765 1.18 2.547 1.712.854.582 1.707 1.163 2.81 1.885.28.184.549.376.81.562.994.709 1.887 1.346 2.991 1.244.642-.059 1.304-.662 1.64-2.46.795-4.25 2.358-13.46 2.72-17.255a4.228 4.228 0 00-.04-.945c-.033-.187-.1-.453-.342-.65-.288-.233-.732-.282-.93-.279-.903.016-2.288.498-8.953 3.27z" fill="#fff"/></g><defs><clipPath id="dclip0_148_766"><path fill="#fff" d="M0 0h48v48H0z"/></clipPath></defs></svg><svg viewBox="0 0 14 26" id="arrow" xmlns="http://www.w3.org/2000/svg"><path fill-rule="evenodd" clip-rule="evenodd" d="M13.178 1.187c.651.697.651 1.828 0 2.525l-8.821 9.452 8.821 9.452c.651.697.651 1.828 0 2.525a1.59 1.59 0 01-2.357 0l-10-10.714a1.853 1.853 0 01-.488-1.263c0-.473.176-.928.488-1.263l10-10.714a1.59 1.59 0 012.357 0z"/></svg><svg viewBox="0 0 32 32" id="close" xmlns="http://www.w3.org/2000/svg"><path d="M7 7l18 18M7 25L25 7"/></svg><svg viewBox="0 0 24 24" id="facebook" xmlns="http://www.w3.org/2000/svg"><g clip-path="url(#gclip0_148_146)"><path d="M24 12c0-6.627-5.373-12-12-12S0 5.373 0 12c0 5.99 4.388 10.954 10.125 11.854V15.47H7.078V12h3.047V9.356c0-3.007 1.792-4.668 4.533-4.668 1.312 0 2.686.234 2.686.234v2.953H15.83c-1.491 0-1.956.925-1.956 1.875V12h3.328l-.532 3.469h-2.796v8.385C19.612 22.954 24 17.99 24 12z"/></g><defs><clipPath id="gclip0_148_146"><path d="M0 0h24v24H0z"/></clipPath></defs></svg><svg viewBox="0 0 24 24" id="instagram" xmlns="http://www.w3.org/2000/svg"><g clip-path="url(#hclip0_148_149)"><path d="M12 2.16c3.206 0 3.586.015 4.847.071 1.172.052 1.805.249 2.226.413a3.71 3.71 0 011.379.895c.421.422.68.82.895 1.378.164.422.36 1.06.412 2.227.057 1.265.07 1.645.07 4.847 0 3.206-.013 3.586-.07 4.846-.051 1.172-.248 1.805-.412 2.227a3.71 3.71 0 01-.895 1.378 3.69 3.69 0 01-1.379.895c-.421.165-1.059.361-2.226.413-1.266.056-1.645.07-4.847.07-3.206 0-3.586-.014-4.847-.07-1.172-.052-1.805-.248-2.226-.413a3.71 3.71 0 01-1.379-.895 3.691 3.691 0 01-.895-1.378c-.164-.422-.36-1.06-.412-2.227-.057-1.265-.07-1.645-.07-4.846 0-3.207.013-3.586.07-4.847.051-1.172.248-1.805.412-2.227.216-.558.478-.96.895-1.378.422-.422.82-.68 1.379-.895.421-.164 1.059-.361 2.226-.413 1.261-.056 1.64-.07 4.847-.07zM12 0C8.742 0 8.334.014 7.055.07 5.78.127 4.903.333 4.144.628a5.857 5.857 0 00-2.128 1.388A5.88 5.88 0 00.628 4.139C.333 4.903.127 5.775.07 7.05.014 8.334 0 8.742 0 12s.014 3.666.07 4.945c.057 1.275.263 2.152.558 2.911.31.792.717 1.463 1.388 2.128a5.866 5.866 0 002.123 1.383c.764.296 1.636.502 2.911.558 1.28.056 1.688.07 4.945.07 3.258 0 3.666-.014 4.946-.07 1.275-.056 2.151-.262 2.91-.558a5.866 5.866 0 002.124-1.383 5.866 5.866 0 001.383-2.123c.295-.764.501-1.636.558-2.911.056-1.28.07-1.688.07-4.945 0-3.258-.014-3.666-.07-4.946-.057-1.275-.263-2.151-.558-2.91a5.62 5.62 0 00-1.374-2.133A5.866 5.866 0 0019.861.633C19.097.338 18.225.13 16.95.075 15.666.015 15.258 0 12 0z"/><path d="M12 5.836A6.166 6.166 0 005.836 12 6.166 6.166 0 0012 18.164 6.166 6.166 0 0018.164 12 6.166 6.166 0 0012 5.836zm0 10.162A3.999 3.999 0 1112.001 8 3.999 3.999 0 0112 15.998zM19.847 5.592a1.44 1.44 0 11-2.879 0 1.44 1.44 0 012.879 0z"/></g><defs><clipPath id="hclip0_148_149"><path d="M0 0h24v24H0z"/></clipPath></defs></svg><svg fill="none" viewBox="0 0 95 81" id="logo_footer" xmlns="http://www.w3.org/2000/svg"><path d="M71.15 38.456s8.473-3.959 11.41-7.78M60.556 27.25s5.96-7.206 6.978-11.919M76.46 50.986s9.081-2.238 13.768-1.108M11.231 28.251s6.655 6.57 11.26 7.998M6 48.16s9.034 2.42 13.742 1.384M48.113 24.768S48.88 15.447 47.02 11M32.555 27.973s-2.32-9.06-5.53-12.656" stroke="#fff" stroke-width="4.546" stroke-linecap="round"/><circle cx="48.049" cy="51.135" r="18.752" fill="#fff"/><path d="M25.888 59.191l7.67-6.375a5.114 5.114 0 016.538 0l4.4 3.658a5.114 5.114 0 006.538 0l4.4-3.658a5.114 5.114 0 016.538 0l7.67 6.375M25.888 69.808l5.47-4.546 2.2-1.828a5.114 5.114 0 016.538 0l4.4 3.657a5.114 5.114 0 006.538 0l4.4-3.657a5.114 5.114 0 016.538 0l2.2 1.828 5.47 4.546" stroke="#4262B1" stroke-width="4.546" stroke-linecap="round"/></svg><svg viewBox="0 0 24 24" fill-rule="evenodd" clip-rule="evenodd" stroke-linejoin="round" stroke-miterlimit="2" id="menu" xmlns="http://www.w3.org/2000/svg"><path d="M4 6.75h16a.75.75 0 000-1.5H4a.75.75 0 000 1.5zM4 12.75h16a.75.75 0 000-1.5H4a.75.75 0 000 1.5zM4 18.75h16a.75.75 0 000-1.5H4a.75.75 0 000 1.5z"/></svg><svg viewBox="0 0 24 24" id="telegram" xmlns="http://www.w3.org/2000/svg"><g clip-path="url(#kclip0_148_147)"><path fill-rule="evenodd" clip-rule="evenodd" d="M24 12c0 6.627-5.373 12-12 12S0 18.627 0 12 5.373 0 12 0s12 5.373 12 12zM12.43 8.859c-1.167.485-3.5 1.49-6.998 3.014-.568.226-.866.447-.893.663-.046.366.412.51 1.034.705.085.027.173.054.263.084.613.199 1.437.432 1.865.441.389.008.823-.152 1.302-.48 3.268-2.207 4.955-3.322 5.061-3.346.075-.017.179-.039.249.024.07.062.063.18.056.212-.046.193-1.84 1.862-2.77 2.726-.29.269-.495.46-.537.504-.094.097-.19.19-.282.279-.57.548-.996.96.024 1.632.49.323.882.59 1.273.856.427.291.853.581 1.405.943.14.092.274.187.405.28.497.355.944.673 1.496.623.32-.03.652-.331.82-1.23.397-2.126 1.179-6.73 1.36-8.628a2.123 2.123 0 00-.02-.472.506.506 0 00-.172-.325c-.143-.117-.365-.142-.465-.14-.451.008-1.143.249-4.476 1.635z"/></g><defs><clipPath id="kclip0_148_147"><path d="M0 0h24v24H0z"/></clipPath></defs></svg><svg fill="none" viewBox="0 0 50 50" id="viber_footer" xmlns="http://www.w3.org/2000/svg"><g clip-path="url(#lclip0_148_767)"><path d="M46.667 11.123c-.855-3.05-2.547-5.466-5.029-7.174-3.132-2.158-6.735-2.923-9.846-3.387C27.486-.08 23.587-.17 19.873.283c-3.484.427-6.106 1.109-8.5 2.208C6.683 4.645 3.87 8.133 3.01 12.854a64.833 64.833 0 00-.861 6.34c-.377 4.569-.036 8.613 1.043 12.36 1.05 3.653 2.886 6.265 5.612 7.98.697.436 1.583.752 2.445 1.057.43.153.845.303 1.206.462v7.382a1.747 1.747 0 002.967 1.252l6.81-6.624c.297-.339.297-.339.603-.345 2.327-.046 4.704-.136 7.067-.264 2.863-.157 6.18-.432 9.303-1.735 2.858-1.194 4.945-3.089 6.198-5.63 1.307-2.65 2.084-5.523 2.375-8.78.51-5.724.146-10.692-1.11-15.186zM34.809 32.911c-.684 1.119-1.709 1.892-2.913 2.394-.88.368-1.78.29-2.647-.077-7.285-3.082-12.995-7.942-16.772-14.924-.778-1.438-1.32-3.004-1.94-4.524-.128-.314-.117-.68-.174-1.02.055-2.458 1.939-3.84 3.841-4.258.728-.161 1.372.096 1.912.613a16.813 16.813 0 013.563 4.93c.388.814.213 1.533-.45 2.137-.136.126-.28.243-.429.354-1.512 1.137-1.733 1.996-.928 3.709 1.372 2.913 3.649 4.868 6.595 6.08.776.32 1.508.162 2.101-.468.08-.084.17-.165.228-.261 1.163-1.939 2.846-1.746 4.402-.64 1.022.726 2.013 1.49 3.025 2.231 1.535 1.131 1.523 2.194.586 3.724zm-8.74-20.067c-.392 0-.785.031-1.17.096a1.195 1.195 0 11-.393-2.359 9.742 9.742 0 011.563-.127c5.175 0 9.386 4.211 9.386 9.386 0 .525-.044 1.052-.13 1.564a1.196 1.196 0 01-1.376.981 1.197 1.197 0 01-.98-1.376c.065-.38.096-.774.096-1.167 0-3.86-3.139-6.998-6.996-6.998zm5.204 7.766a1.195 1.195 0 01-2.388 0 3.588 3.588 0 00-3.584-3.584 1.195 1.195 0 010-2.388c3.291-.002 5.972 2.679 5.972 5.972zm8.042 1.457a1.192 1.192 0 01-1.43.901 1.194 1.194 0 01-.901-1.428c.173-.763.26-1.551.26-2.342 0-5.808-4.725-10.536-10.536-10.536-.792 0-1.578.088-2.341.261a1.192 1.192 0 01-1.429-.9 1.192 1.192 0 01.902-1.429 12.834 12.834 0 012.873-.322c7.126 0 12.924 5.798 12.924 12.924 0 .97-.109 1.937-.322 2.871z" fill="#fff"/></g><defs><clipPath id="lclip0_148_767"><path fill="#fff" d="M0 0h50v50H0z"/></clipPath></defs></svg></svg>