<svg width="193" height="266" viewBox="0 0 193 266" fill="none" xmlns="http://www.w3.org/2000/svg">
<path d="M189.93 237.847C190.643 238.267 190.881 239.187 190.46 239.9L183.603 251.53C183.182 252.243 182.263 252.481 181.549 252.06C180.836 251.639 180.598 250.72 181.019 250.006L187.114 239.669L176.777 233.574C176.063 233.153 175.826 232.234 176.246 231.52C176.667 230.807 177.587 230.569 178.3 230.99L189.93 237.847ZM-84.9965 4.72104C-84.1852 4.55338 -83.3916 5.07513 -83.2239 5.88642C-83.0563 6.69771 -83.578 7.4913 -84.3893 7.65896L-84.9965 4.72104ZM-68.4792 5.19025C-69.3038 5.26925 -70.0364 4.66477 -70.1154 3.84012C-70.1944 3.01547 -69.5899 2.28292 -68.7652 2.20392L-68.4792 5.19025ZM-52.2302 2.00101C-51.405 2.07404 -50.7952 2.8022 -50.8682 3.62741C-50.9413 4.45261 -51.6694 5.06236 -52.4946 4.98933L-52.2302 2.00101ZM-37.4063 8.62476C-38.1636 8.28905 -38.5054 7.40294 -38.1697 6.64559C-37.834 5.88824 -36.9479 5.54642 -36.1906 5.88214L-37.4063 8.62476ZM-22.7889 16.2328C-22.2779 16.8849 -22.3923 17.8277 -23.0444 18.3387C-23.6964 18.8497 -24.6393 18.7353 -25.1502 18.0832L-22.7889 16.2328ZM-18.2675 32.0789C-18.5007 31.284 -18.0453 30.4505 -17.2504 30.2173C-16.4555 29.9841 -15.622 30.4395 -15.3888 31.2344L-18.2675 32.0789ZM-12.5173 47.6825C-12.4488 48.5081 -13.0625 49.2329 -13.8881 49.3014C-14.7137 49.3699 -15.4385 48.7561 -15.507 47.9305L-12.5173 47.6825ZM-15.0942 64.0268C-15.0773 63.1986 -14.3922 62.5408 -13.564 62.5576C-12.7357 62.5745 -12.0779 63.2596 -12.0948 64.0878L-15.0942 64.0268ZM-12.9182 80.5048C-12.9792 81.331 -13.6984 81.9513 -14.5246 81.8903C-15.3507 81.8293 -15.971 81.1101 -15.91 80.2839L-12.9182 80.5048ZM-17.336 96.5603C-17.2558 95.7357 -16.5223 95.1323 -15.6978 95.2125C-14.8732 95.2927 -14.2698 96.0262 -14.35 96.8507L-17.336 96.5603ZM-15.974 113.131C-16.0556 113.955 -16.7901 114.557 -17.6145 114.476C-18.4389 114.394 -19.041 113.66 -18.9594 112.835L-15.974 113.131ZM-20.4594 129.126C-20.3916 128.3 -19.6673 127.686 -18.8416 127.754C-18.016 127.821 -17.4016 128.546 -17.4695 129.371L-20.4594 129.126ZM-18.542 145.632C-18.5804 146.46 -19.2824 147.1 -20.11 147.061C-20.9375 147.023 -21.5772 146.321 -21.5387 145.493L-18.542 145.632ZM-21.8615 161.929C-21.8709 161.101 -21.2069 160.422 -20.3785 160.413C-19.5501 160.403 -18.871 161.067 -18.8617 161.896L-21.8615 161.929ZM-18.0241 178.084C-17.9433 178.909 -18.5462 179.643 -19.3707 179.724C-20.1951 179.804 -20.929 179.201 -21.0098 178.377L-18.0241 178.084ZM-18.4366 194.668C-18.6198 193.86 -18.1134 193.057 -17.3056 192.873C-16.4976 192.69 -15.6942 193.197 -15.5109 194.004L-18.4366 194.668ZM-10.6735 209.292C-10.3515 210.055 -10.7092 210.935 -11.4725 211.257C-12.2358 211.579 -13.1156 211.221 -13.4376 210.458L-10.6735 209.292ZM-5.32599 224.968C-5.81239 224.298 -5.66308 223.36 -4.99249 222.873C-4.32189 222.387 -3.38395 222.536 -2.89755 223.207L-5.32599 224.968ZM7.97083 234.791C8.60902 235.32 8.69818 236.265 8.16999 236.903C7.64179 237.541 6.69623 237.631 6.05805 237.102L7.97083 234.791ZM20.0787 246.154C19.3373 245.784 19.0357 244.884 19.4052 244.142C19.7746 243.401 20.6752 243.099 21.4167 243.469L20.0787 246.154ZM36.4362 249.263C37.2317 249.494 37.6892 250.327 37.4579 251.122C37.2267 251.918 36.3944 252.375 35.5989 252.144L36.4362 249.263ZM51.6717 255.632C50.8528 255.507 50.2899 254.742 50.4147 253.923C50.5394 253.104 51.3044 252.541 52.1234 252.666L51.6717 255.632ZM68.0338 254.266C68.861 254.311 69.4953 255.018 69.4505 255.845C69.4057 256.672 68.6988 257.307 67.8716 257.262L68.0338 254.266ZM84.1822 257.515C83.3539 257.531 82.6692 256.873 82.6528 256.045C82.6364 255.217 83.2945 254.532 84.1228 254.516L84.1822 257.515ZM100.543 253.69C101.369 253.625 102.091 254.242 102.156 255.068C102.22 255.894 101.603 256.616 100.777 256.681L100.543 253.69ZM116.956 255.025C116.134 255.128 115.385 254.544 115.282 253.722C115.18 252.9 115.763 252.151 116.585 252.048L116.956 255.025ZM132.623 249.734C133.44 249.601 134.211 250.155 134.344 250.973C134.477 251.791 133.922 252.562 133.105 252.695L132.623 249.734ZM149.362 249.775C148.549 249.934 147.761 249.404 147.602 248.591C147.443 247.778 147.974 246.99 148.787 246.831L149.362 249.775ZM164.556 243.528C165.365 243.348 166.166 243.858 166.346 244.666C166.527 245.475 166.017 246.276 165.208 246.457L164.556 243.528ZM181.216 242.694C180.412 242.892 179.599 242.401 179.4 241.597C179.202 240.793 179.693 239.98 180.497 239.781L181.216 242.694ZM-93.4277 6.64891C-90.5193 5.92367 -87.7099 5.2818 -84.9965 4.72104L-84.3893 7.65896C-87.0604 8.21097 -89.8302 8.8437 -92.7019 9.55977L-93.4277 6.64891ZM-68.7652 2.20392C-62.6647 1.61957 -57.171 1.56373 -52.2302 2.00101L-52.4946 4.98933C-57.2212 4.57101 -62.5278 4.62017 -68.4792 5.19025L-68.7652 2.20392ZM-36.1906 5.88214C-30.6205 8.35119 -26.2172 11.8578 -22.7889 16.2328L-25.1502 18.0832C-28.2746 14.096 -32.2841 10.8953 -37.4063 8.62476L-36.1906 5.88214ZM-15.3888 31.2344C-13.913 36.2651 -13.0064 41.7872 -12.5173 47.6825L-15.507 47.9305C-15.9843 42.1784 -16.8633 36.8655 -18.2675 32.0789L-15.3888 31.2344ZM-12.0948 64.0878C-12.2023 69.3773 -12.502 74.8694 -12.9182 80.5048L-15.91 80.2839C-15.4965 74.6836 -15.2003 69.2475 -15.0942 64.0268L-12.0948 64.0878ZM-14.35 96.8507C-14.8708 102.205 -15.4323 107.659 -15.974 113.131L-18.9594 112.835C-18.4156 107.342 -17.8569 101.916 -17.336 96.5603L-14.35 96.8507ZM-17.4695 129.371C-17.9162 134.81 -18.2916 140.243 -18.542 145.632L-21.5387 145.493C-21.2863 140.059 -20.9082 134.589 -20.4594 129.126L-17.4695 129.371ZM-18.8617 161.896C-18.7996 167.404 -18.5407 172.815 -18.0241 178.084L-21.0098 178.377C-21.5362 173.007 -21.7987 167.508 -21.8615 161.929L-18.8617 161.896ZM-15.5109 194.004C-14.299 199.347 -12.7115 204.461 -10.6735 209.292L-13.4376 210.458C-15.5533 205.443 -17.1912 200.158 -18.4366 194.668L-15.5109 194.004ZM-2.89755 223.207C0.159892 227.422 3.75544 231.302 7.97083 234.791L6.05805 237.102C1.64368 233.449 -2.12406 229.383 -5.32599 224.968L-2.89755 223.207ZM21.4167 243.469C25.9217 245.714 30.9119 247.657 36.4362 249.263L35.5989 252.144C29.9162 250.492 24.757 248.485 20.0787 246.154L21.4167 243.469ZM52.1234 252.666C57.0842 253.421 62.3806 253.96 68.0338 254.266L67.8716 257.262C62.13 256.951 56.7365 256.403 51.6717 255.632L52.1234 252.666ZM84.1228 254.516C89.3368 254.412 94.8062 254.14 100.543 253.69L100.777 256.681C94.9869 257.135 89.4589 257.411 84.1822 257.515L84.1228 254.516ZM116.585 252.048C121.739 251.406 127.083 250.636 132.623 249.734L133.105 252.695C127.53 253.603 122.149 254.378 116.956 255.025L116.585 252.048ZM148.787 246.831C153.891 245.833 159.146 244.733 164.556 243.528L165.208 246.457C159.774 247.667 154.493 248.772 149.362 249.775L148.787 246.831ZM180.497 239.781C183.226 239.108 185.991 238.41 188.793 237.686L189.543 240.591C186.731 241.317 183.955 242.018 181.216 242.694L180.497 239.781ZM190.691 236.554C192.119 237.396 192.593 239.235 191.752 240.662L178.039 263.921C177.197 265.348 175.358 265.823 173.931 264.981C172.504 264.14 172.029 262.301 172.87 260.873L185.06 240.199L164.386 228.01C162.958 227.168 162.484 225.329 163.325 223.902C164.167 222.475 166.006 222 167.433 222.841L190.691 236.554ZM-85.3001 3.25208C-83.6775 2.91677 -82.0903 3.96028 -81.755 5.58285C-81.4197 7.20542 -82.4632 8.7926 -84.0858 9.12792L-85.3001 3.25208ZM-68.3361 6.68342C-69.9855 6.84141 -71.4506 5.63246 -71.6085 3.98315C-71.7665 2.33385 -70.5576 0.868753 -68.9083 0.710758L-68.3361 6.68342ZM-52.0979 0.506844C-50.4475 0.652918 -49.228 2.10924 -49.3741 3.75964C-49.5201 5.41005 -50.9765 6.62955 -52.6269 6.48349L-52.0979 0.506844ZM-38.0141 9.99608C-39.5289 9.32465 -40.2125 7.55244 -39.5411 6.03773C-38.8696 4.52301 -37.0974 3.83939 -35.5827 4.51082L-38.0141 9.99608ZM-21.6082 15.3076C-20.5862 16.6118 -20.815 18.4974 -22.1192 19.5194C-23.4233 20.5413 -25.309 20.3126 -26.3309 19.0084L-21.6082 15.3076ZM-19.7069 32.5012C-20.1732 30.9113 -19.2625 29.2444 -17.6727 28.778C-16.0828 28.3116 -14.4159 29.2223 -13.9495 30.8122L-19.7069 32.5012ZM-11.0224 47.5585C-10.8854 49.2096 -12.1129 50.6592 -13.7641 50.7962C-15.4152 50.9332 -16.8649 49.7058 -17.0019 48.0546L-11.0224 47.5585ZM-16.5939 63.9963C-16.5602 62.3398 -15.19 61.0243 -13.5335 61.0579C-11.877 61.0916 -10.5614 62.4618 -10.5951 64.1183L-16.5939 63.9963ZM-11.4222 80.6153C-11.5443 82.2676 -12.9827 83.5082 -14.635 83.3862C-16.2874 83.2642 -17.528 81.8258 -17.4059 80.1734L-11.4222 80.6153ZM-18.8289 96.415C-18.6685 94.766 -17.2016 93.5592 -15.5526 93.7196C-13.9035 93.88 -12.6967 95.3468 -12.8571 96.9959L-18.8289 96.415ZM-14.4813 113.278C-14.6445 114.927 -16.1134 116.132 -17.7622 115.968C-19.411 115.805 -20.6153 114.336 -20.4521 112.687L-14.4813 113.278ZM-21.9544 129.003C-21.8187 127.352 -20.3701 126.123 -18.7188 126.259C-17.0675 126.394 -15.8389 127.843 -15.9745 129.494L-21.9544 129.003ZM-17.0436 145.702C-17.1205 147.357 -18.5245 148.636 -20.1796 148.56C-21.8346 148.483 -23.114 147.079 -23.0371 145.424L-17.0436 145.702ZM-23.3614 161.946C-23.3801 160.29 -22.0522 158.931 -20.3954 158.913C-18.7387 158.894 -17.3805 160.222 -17.3618 161.879L-23.3614 161.946ZM-16.5313 177.938C-16.3697 179.587 -17.5754 181.055 -19.2243 181.216C-20.8733 181.378 -22.341 180.172 -22.5027 178.523L-16.5313 177.938ZM-19.8994 195C-20.2659 193.384 -19.2532 191.777 -17.6374 191.411C-16.0216 191.044 -14.4146 192.057 -14.0481 193.673L-19.8994 195ZM-9.29148 208.708C-8.64745 210.235 -9.36288 211.995 -10.8894 212.639C-12.416 213.283 -14.1756 212.567 -14.8197 211.041L-9.29148 208.708ZM-6.54021 225.849C-7.51302 224.508 -7.21439 222.632 -5.8732 221.659C-4.53202 220.686 -2.65614 220.985 -1.68332 222.326L-6.54021 225.849ZM8.92721 233.636C10.2036 234.692 10.382 236.583 9.32555 237.86C8.26915 239.136 6.37805 239.314 5.10165 238.258L8.92721 233.636ZM19.4098 247.497C17.9268 246.758 17.3237 244.956 18.0626 243.473C18.8016 241.99 20.6028 241.387 22.0857 242.126L19.4098 247.497ZM36.8549 247.823C38.4459 248.285 39.3608 249.95 38.8983 251.541C38.4359 253.132 36.7712 254.047 35.1802 253.584L36.8549 247.823ZM51.446 257.115C49.808 256.865 48.6823 255.335 48.9317 253.697C49.1812 252.059 50.7112 250.934 52.3492 251.183L51.446 257.115ZM68.1148 252.768C69.7693 252.858 71.0378 254.272 70.9483 255.926C70.8587 257.581 69.445 258.849 67.7905 258.76L68.1148 252.768ZM84.2118 259.015C82.5553 259.048 81.1858 257.731 81.1531 256.075C81.1203 254.418 82.4365 253.049 84.0931 253.016L84.2118 259.015ZM100.425 252.195C102.077 252.065 103.521 253.299 103.651 254.951C103.781 256.602 102.547 258.047 100.895 258.176L100.425 252.195ZM117.142 256.514C115.498 256.719 113.999 255.552 113.794 253.908C113.589 252.264 114.756 250.765 116.4 250.56L117.142 256.514ZM132.381 248.253C134.017 247.987 135.558 249.097 135.825 250.732C136.091 252.367 134.981 253.909 133.346 254.175L132.381 248.253ZM149.65 251.247C148.024 251.565 146.448 250.504 146.13 248.878C145.812 247.252 146.873 245.676 148.499 245.359L149.65 251.247ZM164.23 242.064C165.847 241.704 167.45 242.723 167.811 244.34C168.171 245.957 167.152 247.56 165.535 247.921L164.23 242.064ZM181.576 244.15C179.967 244.547 178.341 243.565 177.944 241.957C177.547 240.348 178.529 238.722 180.138 238.325L181.576 244.15ZM-93.7907 5.19347C-90.8638 4.46366 -88.0346 3.81721 -85.3001 3.25208L-84.0858 9.12792C-86.7357 9.67556 -89.4856 10.3037 -92.339 11.0152L-93.7907 5.19347ZM-68.9083 0.710758C-62.7332 0.119251 -57.1459 0.0600796 -52.0979 0.506844L-52.6269 6.48349C-57.2463 6.07466 -62.4593 6.12048 -68.3361 6.68342L-68.9083 0.710758ZM-35.5827 4.51082C-29.7886 7.07916 -25.1884 10.7387 -21.6082 15.3076L-26.3309 19.0084C-29.3034 15.2151 -33.116 12.1673 -38.0141 9.99608L-35.5827 4.51082ZM-13.9495 30.8122C-12.4379 35.9649 -11.5175 41.5916 -11.0224 47.5585L-17.0019 48.0546C-17.4732 42.374 -18.3385 37.1657 -19.7069 32.5012L-13.9495 30.8122ZM-10.5951 64.1183C-10.7034 69.4422 -11.0048 74.9622 -11.4222 80.6153L-17.4059 80.1734C-16.9937 74.5907 -16.6993 69.1826 -16.5939 63.9963L-10.5951 64.1183ZM-12.8571 96.9959C-13.3778 102.349 -13.9407 107.817 -14.4813 113.278L-20.4521 112.687C-19.9073 107.184 -19.35 101.772 -18.8289 96.415L-12.8571 96.9959ZM-15.9745 129.494C-16.4202 134.92 -16.7942 140.335 -17.0436 145.702L-23.0371 145.424C-22.7836 139.967 -22.4042 134.479 -21.9544 129.003L-15.9745 129.494ZM-17.3618 161.879C-17.3001 167.352 -17.0429 172.719 -16.5313 177.938L-22.5027 178.523C-23.034 173.103 -23.2982 167.561 -23.3614 161.946L-17.3618 161.879ZM-14.0481 193.673C-12.8529 198.941 -11.2907 203.97 -9.29148 208.708L-14.8197 211.041C-16.9741 205.934 -18.6374 200.564 -19.8994 195L-14.0481 193.673ZM-1.68332 222.326C1.30186 226.442 4.81132 230.229 8.92721 233.636L5.10165 238.258C0.587784 234.522 -3.26603 230.363 -6.54021 225.849L-1.68332 222.326ZM22.0857 242.126C26.5041 244.328 31.4098 246.24 36.8549 247.823L35.1802 253.584C29.4184 251.91 24.1747 249.871 19.4098 247.497L22.0857 242.126ZM52.3492 251.183C57.2581 251.93 62.5059 252.465 68.1148 252.768L67.7905 258.76C62.0047 258.446 56.5627 257.894 51.446 257.115L52.3492 251.183ZM84.0931 253.016C89.2758 252.913 94.7159 252.643 100.425 252.195L100.895 258.176C95.0772 258.633 89.5199 258.91 84.2118 259.015L84.0931 253.016ZM116.4 250.56C121.534 249.92 126.859 249.153 132.381 248.253L133.346 254.175C127.754 255.086 122.355 255.864 117.142 256.514L116.4 250.56ZM148.499 245.359C153.59 244.364 158.832 243.267 164.23 242.064L165.535 247.921C160.088 249.134 154.795 250.242 149.65 251.247L148.499 245.359ZM180.138 238.325C182.861 237.653 185.621 236.956 188.418 236.234L189.918 242.043C187.101 242.771 184.32 243.473 181.576 244.15L180.138 238.325Z" fill="#E3FB73"/>
</svg>
