<svg width="1440" height="52" viewBox="0 0 1440 52" fill="none" xmlns="http://www.w3.org/2000/svg">
<path d="M1377.74 42.51L1440 1H0L62.265 42.51C79.0599 53.7066 100.94 53.7066 117.735 42.51L152.265 19.49C169.06 8.29336 190.94 8.29337 207.735 19.49L242.265 42.51C259.06 53.7066 280.94 53.7066 297.735 42.51L332.265 19.49C349.06 8.29336 370.94 8.29337 387.735 19.49L422.265 42.51C439.06 53.7066 460.94 53.7066 477.735 42.51L512.265 19.49C529.06 8.29336 550.94 8.29337 567.735 19.49L602.265 42.51C619.06 53.7066 640.94 53.7066 657.735 42.51L692.265 19.49C709.06 8.29336 730.94 8.29337 747.735 19.49L782.265 42.51C799.06 53.7066 820.94 53.7066 837.735 42.51L872.265 19.49C889.06 8.29336 910.94 8.29337 927.735 19.49L962.265 42.51C979.06 53.7066 1000.94 53.7066 1017.74 42.51L1052.26 19.49C1069.06 8.29336 1090.94 8.29337 1107.74 19.49L1142.26 42.51C1159.06 53.7066 1180.94 53.7066 1197.74 42.51L1232.26 19.49C1249.06 8.29336 1270.94 8.29337 1287.74 19.49L1322.26 42.51C1339.06 53.7066 1360.94 53.7066 1377.74 42.51Z" fill="#D5E6EB" stroke="#C7E9FC"/>
</svg>
