<svg width="1440" height="52" viewBox="0 0 1440 52" fill="none" xmlns="http://www.w3.org/2000/svg">
<path d="M62.265 9.49002L0 51H1440L1377.73 9.49001C1360.94 -1.70664 1339.06 -1.70663 1322.27 9.49002L1287.73 32.51C1270.94 43.7066 1249.06 43.7066 1232.27 32.51L1197.73 9.49001C1180.94 -1.70664 1159.06 -1.70663 1142.27 9.49002L1107.73 32.51C1090.94 43.7066 1069.06 43.7066 1052.27 32.51L1017.73 9.49001C1000.94 -1.70664 979.06 -1.70663 962.265 9.49002L927.735 32.51C910.94 43.7066 889.06 43.7066 872.265 32.51L837.735 9.49001C820.94 -1.70664 799.06 -1.70663 782.265 9.49002L747.735 32.51C730.94 43.7066 709.06 43.7066 692.265 32.51L657.735 9.49001C640.94 -1.70664 619.06 -1.70663 602.265 9.49002L567.735 32.51C550.94 43.7066 529.06 43.7066 512.265 32.51L477.735 9.49001C460.94 -1.70664 439.06 -1.70663 422.265 9.49002L387.735 32.51C370.94 43.7066 349.06 43.7066 332.265 32.51L297.735 9.49001C280.94 -1.70664 259.06 -1.70663 242.265 9.49002L207.735 32.51C190.94 43.7066 169.06 43.7066 152.265 32.51L117.735 9.49001C100.94 -1.70664 79.0599 -1.70663 62.265 9.49002Z" fill="#D5E6EB" stroke="#C7E9FC"/>
</svg>
