<svg width="1440" height="50" viewBox="0 0 1440 50" fill="none" xmlns="http://www.w3.org/2000/svg">
<path d="M1377.74 8.49002L1440 50H0L62.265 8.49001C79.0599 -2.70664 100.94 -2.70663 117.735 8.49002L152.265 31.51C169.06 42.7066 190.94 42.7066 207.735 31.51L242.265 8.49001C259.06 -2.70664 280.94 -2.70663 297.735 8.49002L332.265 31.51C349.06 42.7066 370.94 42.7066 387.735 31.51L422.265 8.49001C439.06 -2.70664 460.94 -2.70663 477.735 8.49002L512.265 31.51C529.06 42.7066 550.94 42.7066 567.735 31.51L602.265 8.49001C619.06 -2.70664 640.94 -2.70663 657.735 8.49002L692.265 31.51C709.06 42.7066 730.94 42.7066 747.735 31.51L782.265 8.49001C799.06 -2.70664 820.94 -2.70663 837.735 8.49002L872.265 31.51C889.06 42.7066 910.94 42.7066 927.735 31.51L962.265 8.49001C979.06 -2.70664 1000.94 -2.70663 1017.74 8.49002L1052.26 31.51C1069.06 42.7066 1090.94 42.7066 1107.74 31.51L1142.26 8.49001C1159.06 -2.70664 1180.94 -2.70663 1197.74 8.49002L1232.26 31.51C1249.06 42.7066 1270.94 42.7066 1287.74 31.51L1322.26 8.49001C1339.06 -2.70664 1360.94 -2.70663 1377.74 8.49002Z" fill="#4262B1"/>
</svg>
