<svg width="1440" height="70" viewBox="0 0 1440 70" fill="none" xmlns="http://www.w3.org/2000/svg">
<path fill-rule="evenodd" clip-rule="evenodd" d="M0 21.6543C109.873 24.7752 173.085 56.0407 283 56.0407C396.5 39.1382 518 74.6649 690.5 69.477C810.5 65.868 870.5 -7.62939e-06 1080 56.1409C1238 69.477 1317.13 24.9392 1440 21.6543V-7.62939e-06H1380C1320 -7.62939e-06 1200 -7.62939e-06 1080 -7.62939e-06C960 -7.62939e-06 840 -7.62939e-06 720 -7.62939e-06C600 -7.62939e-06 480 -7.62939e-06 360 -7.62939e-06C240 -7.62939e-06 120 -7.62939e-06 60 -7.62939e-06H0V21.6543Z" fill="#D5E6EB"/>
</svg>
