<svg width="104" height="833" viewBox="0 0 104 833" fill="none" xmlns="http://www.w3.org/2000/svg">
<path d="M86.4999 394.003L85.268 393.147L86.4999 394.003ZM75.2173 625.003L73.8194 625.547L73.761 625.397L73.7358 625.238L75.2173 625.003ZM-66.5619 811.564C-67.1477 810.978 -67.1476 810.028 -66.5618 809.442L-57.0159 799.896C-56.4301 799.311 -55.4804 799.311 -54.8946 799.896C-54.3088 800.482 -54.3088 801.432 -54.8946 802.018L-63.3799 810.503L-54.8946 818.988C-54.3088 819.574 -54.3088 820.524 -54.8946 821.11C-55.4804 821.695 -56.4301 821.695 -57.0159 821.11L-66.5619 811.564ZM-31.949 4.41025C-31.2334 4.82759 -30.9916 5.74603 -31.409 6.46166C-31.8263 7.17728 -32.7448 7.41909 -33.4604 7.00174L-31.949 4.41025ZM-21.3626 17.5836C-21.9191 16.9699 -21.8728 16.0213 -21.2591 15.4648C-20.6455 14.9083 -19.6968 14.9546 -19.1403 15.5683L-21.3626 17.5836ZM-8.63571 28.6045C-8.14616 29.2728 -8.29108 30.2115 -8.95938 30.701C-9.62767 31.1906 -10.5663 31.0457 -11.0559 30.3774L-8.63571 28.6045ZM-1.75545 43.9485C-2.20507 43.2527 -2.00553 42.3241 -1.30974 41.8745C-0.613945 41.4249 0.314604 41.6244 0.764226 42.3202L-1.75545 43.9485ZM9.48955 56.4723C9.91068 57.1857 9.67379 58.1055 8.96041 58.5266C8.24699 58.9478 7.32728 58.7109 6.90612 57.9975L9.48955 56.4723ZM15.0929 72.3929C14.6943 71.6667 14.9598 70.7549 15.686 70.3562C16.4122 69.9576 17.3241 70.2232 17.7227 70.9494L15.0929 72.3929ZM25.5361 85.6453C25.9157 86.3816 25.6265 87.2863 24.8901 87.6658C24.1538 88.0454 23.2492 87.7562 22.8696 87.0199L25.5361 85.6453ZM30.2852 101.825C29.9225 101.08 30.2323 100.182 30.9771 99.8193C31.7219 99.4566 32.6197 99.7663 32.9824 100.511L30.2852 101.825ZM40.098 115.524C40.4451 116.276 40.1167 117.167 39.3645 117.514C38.6122 117.861 37.7211 117.533 37.374 116.781L40.098 115.524ZM44.1577 131.874C43.8255 131.115 44.1714 130.231 44.9304 129.899C45.6892 129.566 46.5738 129.912 46.906 130.671L44.1577 131.874ZM53.4188 145.947C53.7364 146.712 53.3736 147.59 52.6085 147.907C51.8434 148.225 50.9656 147.862 50.648 147.097L53.4188 145.947ZM56.8482 162.443C56.5452 161.672 56.9246 160.801 57.6956 160.498C58.4666 160.195 59.3373 160.575 59.6403 161.346L56.8482 162.443ZM65.5669 176.864C65.855 177.641 65.4588 178.504 64.682 178.792C63.9053 179.08 63.0421 178.684 62.7541 177.907L65.5669 176.864ZM68.3552 193.487C68.0828 192.704 68.4963 191.849 69.2786 191.577C70.061 191.304 70.916 191.718 71.1884 192.5L68.3552 193.487ZM76.4877 208.252C76.7435 209.04 76.312 209.886 75.524 210.142C74.7361 210.397 73.89 209.966 73.6343 209.178L76.4877 208.252ZM78.5667 224.979C78.329 224.186 78.7797 223.35 79.5733 223.112C80.3669 222.874 81.2029 223.325 81.4406 224.118L78.5667 224.979ZM86.0141 240.101C86.2318 240.901 85.7604 241.725 84.9611 241.943C84.1618 242.161 83.3373 241.689 83.1195 240.89L86.0141 240.101ZM87.2488 256.91C87.0535 256.105 87.5479 255.294 88.3529 255.099C89.158 254.904 89.969 255.398 90.1643 256.203L87.2488 256.91ZM93.8323 272.428C94.0018 273.239 93.4817 274.033 92.6708 274.203C91.8599 274.372 91.0652 273.852 90.8958 273.041L93.8323 272.428ZM93.9807 289.281C93.8419 288.464 94.3913 287.689 95.208 287.55C96.0247 287.412 96.7994 287.961 96.9383 288.778L93.9807 289.281ZM99.3709 305.251C99.4728 306.073 98.8889 306.822 98.0668 306.924C97.2446 307.026 96.4956 306.442 96.3937 305.62L99.3709 305.251ZM97.979 322.032C97.9235 321.205 98.5485 320.49 99.3751 320.435C100.202 320.379 100.917 321.004 100.972 321.831L97.979 322.032ZM101.512 338.468C101.508 339.297 100.832 339.965 100.004 339.96C99.1754 339.955 98.5076 339.28 98.5122 338.452L101.512 338.468ZM97.6523 354.862C97.7389 354.038 98.4769 353.441 99.3008 353.527C100.125 353.614 100.722 354.352 100.636 355.176L97.6523 354.862ZM97.7626 371.752C97.5594 372.555 96.7436 373.042 95.9405 372.839C95.1374 372.635 94.651 371.82 94.8542 371.017L97.7626 371.752ZM89.3477 386.223C89.7173 385.482 90.6179 385.18 91.3593 385.55C92.1008 385.919 92.4022 386.82 92.0327 387.561L89.3477 386.223ZM83.5555 401.074C83.1044 401.769 82.1754 401.966 81.4806 401.515C80.7857 401.064 80.5882 400.135 81.0393 399.44L83.5555 401.074ZM73.242 412.396C73.6436 411.671 74.5566 411.409 75.2811 411.811C76.0057 412.212 76.2676 413.125 75.866 413.85L73.242 412.396ZM69.1704 427.129C68.8279 427.883 67.9388 428.217 67.1844 427.874C66.4301 427.532 66.0964 426.643 66.4389 425.888L69.1704 427.129ZM60.7947 439.923C61.0686 439.141 61.9246 438.729 62.7063 439.003C63.4881 439.277 63.8998 440.133 63.6258 440.915L60.7947 439.923ZM59.3841 455.152C59.1861 455.957 58.3736 456.448 57.5691 456.25C56.7647 456.052 56.2731 455.24 56.471 454.435L59.3841 455.152ZM53.5748 469.302C53.6935 468.482 54.4544 467.914 55.2742 468.032C56.0941 468.151 56.6626 468.912 56.5439 469.732L53.5748 469.302ZM55.1107 484.522C55.0687 485.349 54.3639 485.986 53.5365 485.944C52.7092 485.902 52.0725 485.197 52.1146 484.369L55.1107 484.522ZM51.9871 499.492C51.9608 498.664 52.6107 497.972 53.4387 497.945C54.2667 497.919 54.9592 498.569 54.9855 499.397L51.9871 499.492ZM55.9848 514.265C56.0674 515.089 55.466 515.825 54.6417 515.907C53.8174 515.99 53.0823 515.388 52.9998 514.564L55.9848 514.265ZM54.9107 529.527C54.7856 528.708 55.3481 527.943 56.1671 527.818C56.986 527.693 57.7512 528.255 57.8763 529.074L54.9107 529.527ZM60.4138 543.807C60.5677 544.621 60.0327 545.406 59.2187 545.56C58.4047 545.714 57.62 545.179 57.466 544.365L60.4138 543.807ZM60.4287 559.105C60.2581 558.295 60.7771 557.499 61.5877 557.329C62.3984 557.158 63.1939 557.677 63.3644 558.488L60.4287 559.105ZM66.5176 573.148C66.6937 573.958 66.1803 574.757 65.3708 574.933C64.5614 575.109 63.7623 574.596 63.5862 573.786L66.5176 573.148ZM66.7538 588.448C66.5815 587.637 67.0988 586.841 67.9091 586.669C68.7194 586.496 69.516 587.014 69.6882 587.824L66.7538 588.448ZM72.7163 602.547C72.8766 603.359 72.3477 604.148 71.5349 604.308C70.7221 604.469 69.9333 603.94 69.773 603.127L72.7163 602.547ZM72.5094 617.852C72.368 617.036 72.9152 616.259 73.7314 616.118C74.5477 615.977 75.324 616.524 75.4654 617.34L72.5094 617.852ZM79.3837 631.96C79.6564 632.742 79.2435 633.598 78.4612 633.871C77.679 634.143 76.8238 633.73 76.551 632.948L79.3837 631.96ZM81.1126 647.84C80.902 647.038 81.3809 646.218 82.1821 646.008C82.9833 645.797 83.8035 646.276 84.0141 647.077L81.1126 647.84ZM87.371 662.655C87.5073 663.472 86.9554 664.245 86.1383 664.382C85.3211 664.518 84.5482 663.966 84.4119 663.149L87.371 662.655ZM86.178 678.595C86.1284 677.768 86.7585 677.057 87.5854 677.007C88.4123 676.958 89.123 677.588 89.1726 678.415L86.178 678.595ZM89.1878 694.356C89.1377 695.183 88.4268 695.813 87.5998 695.762C86.773 695.712 86.1432 695.001 86.1933 694.175L89.1878 694.356ZM84.2333 709.593C84.3934 708.78 85.1821 708.251 85.9949 708.411C86.8077 708.571 87.3368 709.36 87.1767 710.173L84.2333 709.593ZM82.9864 725.56C82.7113 726.341 81.8549 726.752 81.0734 726.477C80.292 726.202 79.8816 725.345 80.1567 724.564L82.9864 725.56ZM73.9379 738.772C74.3255 738.04 75.2332 737.761 75.9654 738.148C76.6976 738.536 76.977 739.443 76.5895 740.176L73.9379 738.772ZM68.1129 753.691C67.6231 754.359 66.6844 754.504 66.0163 754.014C65.3482 753.524 65.2037 752.586 65.6935 751.917L68.1129 753.691ZM55.6584 763.772C56.2354 763.178 57.1851 763.164 57.7795 763.741C58.3739 764.318 58.3879 765.268 57.8109 765.862L55.6584 763.772ZM45.9997 776.555C45.352 777.072 44.4083 776.965 43.8917 776.318C43.3751 775.67 43.4814 774.726 44.129 774.21L45.9997 776.555ZM31.4066 783.192C32.1093 782.753 33.0346 782.967 33.4734 783.67C33.9122 784.373 33.6983 785.298 32.9956 785.737L31.4066 783.192ZM19.0774 793.437C18.333 793.8 17.4349 793.491 17.0714 792.747C16.7081 792.002 17.0169 791.104 17.7614 790.741L19.0774 793.437ZM3.42636 796.904C4.20185 796.613 5.06674 797.006 5.35814 797.781C5.64954 798.556 5.25711 799.421 4.48163 799.713L3.42636 796.904ZM-10.612 804.636C-11.4099 804.859 -12.2373 804.393 -12.4601 803.595C-12.6828 802.797 -12.2166 801.969 -11.4187 801.747L-10.612 804.636ZM-26.6301 805.325C-25.8167 805.168 -25.03 805.7 -24.873 806.514C-24.716 807.327 -25.2482 808.114 -26.0616 808.271L-26.6301 805.325ZM-41.7483 810.666C-42.5714 810.759 -43.3144 810.168 -43.4077 809.344C-43.501 808.521 -42.9094 807.778 -42.0862 807.685L-41.7483 810.666ZM-57.6816 808.857C-56.8538 808.826 -56.1576 809.472 -56.1266 810.3C-56.0957 811.128 -56.7417 811.824 -57.5695 811.855L-57.6816 808.857ZM-40.6685 2.01152C-37.9395 1.70458 -34.9882 2.63783 -31.949 4.41025L-33.4604 7.00174C-36.2235 5.3903 -38.5076 4.78739 -40.3332 4.99274L-40.6685 2.01152ZM-19.1403 15.5683C-15.7967 19.2552 -12.2797 23.63 -8.63571 28.6045L-11.0559 30.3774C-14.6543 25.465 -18.1053 21.1753 -21.3626 17.5836L-19.1403 15.5683ZM0.764226 42.3202C3.62565 46.7481 6.54047 51.477 9.48955 56.4723L6.90612 57.9975C3.97542 53.0332 1.08183 48.339 -1.75545 43.9485L0.764226 42.3202ZM17.7227 70.9494C20.3183 75.678 22.927 80.584 25.5361 85.6453L22.8696 87.0199C20.2717 81.9806 17.6753 77.0976 15.0929 72.3929L17.7227 70.9494ZM32.9824 100.511C35.3669 105.408 37.7419 110.418 40.098 115.524L37.374 116.781C35.0265 111.693 32.6603 106.702 30.2852 101.825L32.9824 100.511ZM46.906 130.671C49.1053 135.696 51.279 140.792 53.4188 145.947L50.648 147.097C48.5156 141.96 46.3494 136.881 44.1577 131.874L46.906 130.671ZM59.6403 161.346C61.6586 166.482 63.6368 171.659 65.5669 176.864L62.7541 177.907C60.8308 172.721 58.8596 167.561 56.8482 162.443L59.6403 161.346ZM71.1884 192.5C73.013 197.741 74.782 202.996 76.4877 208.252L73.6343 209.178C71.9353 203.943 70.173 198.708 68.3552 193.487L71.1884 192.5ZM81.4406 224.118C83.0418 229.464 84.569 234.797 86.0141 240.101L83.1195 240.89C81.6813 235.611 80.161 230.302 78.5667 224.979L81.4406 224.118ZM90.1643 256.203C91.4887 261.663 92.7145 267.077 93.8323 272.428L90.8958 273.041C89.7848 267.724 88.5661 262.341 87.2488 256.91L90.1643 256.203ZM96.9383 288.778C97.8887 294.367 98.7036 299.865 99.3709 305.251L96.3937 305.62C95.7323 300.282 94.9242 294.829 93.9807 289.281L96.9383 288.778ZM100.972 321.831C101.356 327.55 101.542 333.105 101.512 338.468L98.5122 338.452C98.5417 333.169 98.3589 327.686 97.979 322.032L100.972 321.831ZM100.636 355.176C100.021 361.028 99.0734 366.571 97.7626 371.752L94.8542 371.017C96.125 365.993 97.05 360.594 97.6523 354.862L100.636 355.176ZM92.0327 387.561C90.7448 390.145 89.3136 392.582 87.7319 394.859L85.268 393.147C86.7613 390.997 88.1197 388.687 89.3477 386.223L92.0327 387.561ZM87.7319 394.859C86.2829 396.945 84.8913 399.016 83.5555 401.074L81.0393 399.44C82.3925 397.356 83.8015 395.259 85.268 393.147L87.7319 394.859ZM75.866 413.85C73.3805 418.335 71.1553 422.758 69.1704 427.129L66.4389 425.888C68.4577 421.443 70.719 416.948 73.242 412.396L75.866 413.85ZM63.6258 440.915C61.9453 445.71 60.5407 450.452 59.3841 455.152L56.471 454.435C57.6505 449.642 59.0824 444.808 60.7947 439.923L63.6258 440.915ZM56.5439 469.732C55.8267 474.687 55.3602 479.612 55.1107 484.522L52.1146 484.369C52.3685 479.371 52.8437 474.354 53.5748 469.302L56.5439 469.732ZM54.9855 499.397C55.1428 504.346 55.4874 509.297 55.9848 514.265L52.9998 514.564C52.4963 509.536 52.1468 504.517 51.9871 499.492L54.9855 499.397ZM57.8763 529.074C58.6207 533.95 59.4771 538.856 60.4138 543.807L57.466 544.365C56.5243 539.387 55.6615 534.445 54.9107 529.527L57.8763 529.074ZM63.3644 558.488C64.3806 563.318 65.4407 568.199 66.5176 573.148L63.5862 573.786C62.5095 568.838 61.4472 563.947 60.4287 559.105L63.3644 558.488ZM69.6882 587.824C70.716 592.658 71.7336 597.563 72.7163 602.547L69.773 603.127C68.794 598.162 67.7796 593.273 66.7538 588.448L69.6882 587.824ZM75.4654 617.34C75.8907 619.795 76.3027 622.271 76.6987 624.768L73.7358 625.238C73.3421 622.756 72.9325 620.294 72.5094 617.852L75.4654 617.34ZM76.6152 624.459C77.5976 626.983 78.52 629.484 79.3837 631.96L76.551 632.948C75.6993 630.506 74.7892 628.039 73.8194 625.547L76.6152 624.459ZM84.0141 647.077C85.4107 652.391 86.5253 657.584 87.371 662.655L84.4119 663.149C83.5819 658.172 82.4868 653.069 81.1126 647.84L84.0141 647.077ZM89.1726 678.415C89.5013 683.889 89.4998 689.203 89.1878 694.356L86.1933 694.175C86.4978 689.145 86.4997 683.952 86.178 678.595L89.1726 678.415ZM87.1767 710.173C86.1265 715.504 84.7207 720.634 82.9864 725.56L80.1567 724.564C81.8428 719.774 83.2108 714.784 84.2333 709.593L87.1767 710.173ZM76.5895 740.176C74.0835 744.911 71.247 749.417 68.1129 753.691L65.6935 751.917C68.7434 747.758 71.5018 743.375 73.9379 738.772L76.5895 740.176ZM57.8109 765.862C54.1251 769.658 50.1772 773.223 45.9997 776.555L44.129 774.21C48.2114 770.954 52.0647 767.474 55.6584 763.772L57.8109 765.862ZM32.9956 785.737C28.5328 788.524 23.8836 791.091 19.0774 793.437L17.7614 790.741C22.4778 788.438 27.0356 785.922 31.4066 783.192L32.9956 785.737ZM4.48163 799.713C-0.437847 801.561 -5.47784 803.203 -10.612 804.636L-11.4187 801.747C-6.36603 800.336 -1.40907 798.721 3.42636 796.904L4.48163 799.713ZM-26.0616 808.271C-31.233 809.269 -36.47 810.068 -41.7483 810.666L-42.0862 807.685C-36.884 807.095 -31.7239 806.308 -26.6301 805.325L-26.0616 808.271ZM-57.5695 811.855C-60.2101 811.954 -62.855 812.003 -65.5012 812.003L-65.5012 809.003C-62.8923 809.003 -60.2848 808.954 -57.6816 808.857L-57.5695 811.855ZM86.4999 394.003L84.036 392.292L86.4999 394.003ZM75.2173 625.003L72.4215 626.091L72.3047 625.791L72.2543 625.473L75.2173 625.003ZM-67.6225 812.624C-68.7941 811.453 -68.7941 809.553 -67.6225 808.382L-48.5306 789.29C-47.3591 788.118 -45.4596 788.118 -44.288 789.29C-43.1164 790.461 -43.1164 792.361 -44.288 793.532L-61.2586 810.503L-44.288 827.474C-43.1164 828.645 -43.1164 830.545 -44.288 831.716C-45.4596 832.888 -47.3591 832.888 -48.5306 831.716L-67.6225 812.624ZM-31.1934 3.1145C-29.7621 3.94919 -29.2785 5.78608 -30.1132 7.21733C-30.9479 8.64858 -32.7848 9.13218 -34.2161 8.29749L-31.1934 3.1145ZM-22.4737 18.5913C-23.5867 17.3639 -23.4941 15.4667 -22.2668 14.3537C-21.0395 13.2406 -19.1422 13.3333 -18.0292 14.5606L-22.4737 18.5913ZM-7.42565 27.7181C-6.44655 29.0547 -6.73637 30.932 -8.07296 31.9111C-9.40958 32.8902 -11.2868 32.6004 -12.2659 31.2638L-7.42565 27.7181ZM-3.01529 44.7626C-3.91453 43.371 -3.51544 41.5139 -2.12386 40.6147C-0.732305 39.7154 1.1248 40.1145 2.02406 41.5061L-3.01529 44.7626ZM10.7812 55.7098C11.6235 57.1366 11.1497 58.976 9.72295 59.8183C8.29618 60.6606 6.45673 60.1868 5.61443 58.76L10.7812 55.7098ZM13.7779 73.1147C12.9807 71.6623 13.5118 69.8385 14.9642 69.0413C16.4167 68.244 18.2404 68.7752 19.0377 70.2276L13.7779 73.1147ZM26.8693 84.9579C27.6285 86.4306 27.0501 88.2399 25.5774 88.9991C24.1048 89.7583 22.2955 89.1799 21.5363 87.7072L26.8693 84.9579ZM28.9366 102.481C28.2112 100.992 28.8308 99.196 30.3204 98.4707C31.81 97.7453 33.6056 98.3648 34.331 99.8544L28.9366 102.481ZM41.46 114.895C42.1542 116.4 41.4974 118.182 39.9929 118.876C38.4885 119.57 36.7062 118.914 36.012 117.409L41.46 114.895ZM42.7836 132.476C42.1192 130.958 42.811 129.189 44.3288 128.525C45.8467 127.86 47.6157 128.552 48.2801 130.07L42.7836 132.476ZM54.8041 145.372C55.4394 146.902 54.7138 148.657 53.1836 149.293C51.6534 149.928 49.8979 149.202 49.2627 147.672L54.8041 145.372ZM55.4521 162.991C54.8461 161.449 55.6049 159.708 57.147 159.102C58.689 158.496 60.4303 159.255 61.0364 160.797L55.4521 162.991ZM66.9733 176.343C67.5494 177.896 66.757 179.623 65.2035 180.199C63.6501 180.775 61.9237 179.982 61.3477 178.429L66.9733 176.343ZM66.9386 193.98C66.3939 192.415 67.2207 190.705 68.7854 190.16C70.3502 189.615 72.0603 190.442 72.605 192.007L66.9386 193.98ZM77.9145 207.789C78.4259 209.365 77.563 211.057 75.9871 211.568C74.4111 212.08 72.719 211.217 72.2075 209.641L77.9145 207.789ZM77.1298 225.41C76.6544 223.822 77.5557 222.15 79.1429 221.675C80.7301 221.2 82.4021 222.101 82.8775 223.688L77.1298 225.41ZM87.4613 239.707C87.8968 241.306 86.954 242.955 85.3553 243.39C83.7567 243.826 82.1078 242.883 81.6723 241.284L87.4613 239.707ZM85.7911 257.264C85.4005 255.654 86.3892 254.032 87.9993 253.641C89.6095 253.251 91.2314 254.24 91.622 255.85L85.7911 257.264ZM95.3006 272.121C95.6395 273.743 94.5994 275.332 92.9775 275.671C91.3557 276.01 89.7663 274.97 89.4274 273.348L95.3006 272.121ZM92.502 289.532C92.2242 287.899 93.3232 286.349 94.9566 286.072C96.59 285.794 98.1393 286.893 98.417 288.526L92.502 289.532ZM100.86 305.066C101.063 306.711 99.8955 308.209 98.2512 308.413C96.6069 308.616 95.1088 307.449 94.9051 305.804L100.86 305.066ZM96.4824 322.132C96.3713 320.479 97.6214 319.049 99.2745 318.938C100.928 318.827 102.358 320.077 102.469 321.73L96.4824 322.132ZM103.012 338.477C103.003 340.134 101.652 341.469 99.9955 341.46C98.3386 341.451 97.003 340.1 97.0123 338.443L103.012 338.477ZM96.1605 354.705C96.3336 353.058 97.8098 351.862 99.4576 352.035C101.105 352.209 102.301 353.685 102.128 355.333L96.1605 354.705ZM99.2168 372.12C98.8104 373.726 97.1789 374.699 95.5726 374.293C93.9664 373.887 92.9937 372.255 93.4 370.649L99.2168 372.12ZM88.0052 385.554C88.7444 384.071 90.5456 383.468 92.0285 384.207C93.5114 384.946 94.1143 386.748 93.3752 388.23L88.0052 385.554ZM84.8136 401.891C83.9114 403.28 82.0535 403.676 80.6638 402.773C79.2741 401.871 78.8789 400.013 79.7812 398.624L84.8136 401.891ZM71.9301 411.668C72.7332 410.219 74.5591 409.696 76.0083 410.499C77.4574 411.302 77.9811 413.128 77.178 414.577L71.9301 411.668ZM70.5362 427.749C69.8512 429.258 68.0728 429.925 66.5642 429.24C65.0556 428.555 64.3881 426.777 65.0731 425.268L70.5362 427.749ZM59.3791 439.427C59.9271 437.863 61.6389 437.04 63.2025 437.588C64.7661 438.136 65.5894 439.848 65.0414 441.411L59.3791 439.427ZM60.8406 455.511C60.4448 457.119 58.8196 458.103 57.2107 457.707C55.6019 457.311 54.6186 455.686 55.0144 454.077L60.8406 455.511ZM52.0903 469.087C52.3276 467.447 53.8493 466.311 55.4891 466.548C57.1289 466.785 58.2658 468.307 58.0284 469.947L52.0903 469.087ZM56.6088 484.598C56.5247 486.252 55.1151 487.526 53.4604 487.442C51.8057 487.358 50.5324 485.948 50.6165 484.293L56.6088 484.598ZM50.4878 499.54C50.4352 497.884 51.735 496.499 53.391 496.446C55.047 496.393 56.4322 497.693 56.4848 499.349L50.4878 499.54ZM57.4774 514.116C57.6424 515.764 56.4398 517.235 54.7912 517.4C53.1426 517.565 51.6723 516.362 51.5072 514.714L57.4774 514.116ZM53.4278 529.753C53.1778 528.115 54.3028 526.585 55.9407 526.335C57.5786 526.085 59.109 527.21 59.3591 528.848L53.4278 529.753ZM61.8876 543.528C62.1956 545.156 61.1255 546.726 59.4975 547.034C57.8695 547.342 56.3001 546.272 55.9922 544.644L61.8876 543.528ZM58.9608 559.414C58.6197 557.793 59.6576 556.202 61.279 555.861C62.9003 555.52 64.4912 556.557 64.8323 558.179L58.9608 559.414ZM67.9833 572.829C68.3356 574.448 67.3088 576.046 65.6898 576.398C64.0708 576.751 62.4728 575.724 62.1205 574.105L67.9833 572.829ZM65.2866 588.76C64.9421 587.139 65.9765 585.546 67.5972 585.201C69.2178 584.857 70.8109 585.891 71.1554 587.512L65.2866 588.76ZM74.188 602.256C74.5085 603.882 73.4506 605.46 71.8251 605.78C70.1995 606.101 68.6219 605.043 68.3013 603.417L74.188 602.256ZM71.0315 618.108C70.7487 616.475 71.8429 614.923 73.4754 614.64C75.108 614.357 76.6606 615.451 76.9434 617.084L71.0315 618.108ZM80.8 631.466C81.3456 633.031 80.5196 634.741 78.9552 635.287C77.3908 635.833 75.6802 635.007 75.1346 633.442L80.8 631.466ZM79.6619 648.221C79.2408 646.618 80.1984 644.978 81.8008 644.557C83.4033 644.136 85.0437 645.093 85.4648 646.696L79.6619 648.221ZM88.8506 662.408C89.1232 664.043 88.0193 665.589 86.385 665.861C84.7507 666.134 83.2049 665.03 82.9324 663.395L88.8506 662.408ZM84.6807 678.685C84.5814 677.031 85.8416 675.609 87.4955 675.51C89.1494 675.411 90.5706 676.671 90.6699 678.325L84.6807 678.685ZM90.685 694.447C90.5849 696.1 89.163 697.36 87.5092 697.26C85.8553 697.16 84.5959 695.738 84.696 694.084L90.685 694.447ZM82.7615 709.303C83.0817 707.678 84.6592 706.619 86.2848 706.94C87.9104 707.26 88.9686 708.837 88.6484 710.463L82.7615 709.303ZM84.4013 726.058C83.8511 727.621 82.1382 728.442 80.5753 727.892C79.0125 727.341 78.1916 725.628 78.7418 724.066L84.4013 726.058ZM72.6122 738.071C73.3872 736.606 75.2026 736.047 76.667 736.822C78.1314 737.597 78.6903 739.413 77.9153 740.877L72.6122 738.071ZM69.3227 754.578C68.343 755.914 66.4656 756.203 65.1294 755.224C63.7932 754.244 63.5042 752.367 64.4838 751.031L69.3227 754.578ZM54.5821 762.727C55.7363 761.539 57.6355 761.51 58.8243 762.665C60.0131 763.819 60.0412 765.718 58.8871 766.907L54.5821 762.727ZM46.935 777.728C45.6397 778.761 43.7522 778.548 42.719 777.253C41.6859 775.958 41.8984 774.07 43.1937 773.037L46.935 777.728ZM30.6121 781.92C32.0175 781.042 33.8682 781.47 34.7458 782.876C35.6233 784.281 35.1955 786.132 33.7901 787.009L30.6121 781.92ZM19.7355 794.785C18.2465 795.512 16.4503 794.894 15.7235 793.405C14.9966 791.916 15.6145 790.12 17.1034 789.393L19.7355 794.785ZM2.89872 795.5C4.4497 794.918 6.17947 795.702 6.76227 797.253C7.34507 798.804 6.56025 800.534 5.00927 801.117L2.89872 795.5ZM-10.2086 806.081C-11.8044 806.526 -13.4593 805.594 -13.9048 803.998C-14.3504 802.402 -13.4179 800.747 -11.822 800.302L-10.2086 806.081ZM-26.9143 803.852C-25.2875 803.538 -23.7141 804.603 -23.4002 806.23C-23.0862 807.856 -24.1505 809.43 -25.7774 809.744L-26.9143 803.852ZM-41.5793 812.156C-43.2256 812.343 -44.7115 811.16 -44.8982 809.513C-45.0848 807.867 -43.9015 806.381 -42.2552 806.195L-41.5793 812.156ZM-57.7377 807.358C-56.082 807.296 -54.6896 808.588 -54.6276 810.244C-54.5657 811.9 -55.8578 813.292 -57.5135 813.354L-57.7377 807.358ZM-40.8362 0.520931C-37.6554 0.16316 -34.3705 1.26158 -31.1934 3.1145L-34.2161 8.29749C-36.8412 6.76654 -38.7916 6.32881 -40.1655 6.48333L-40.8362 0.520931ZM-18.0292 14.5606C-14.6423 18.2952 -11.0924 22.7125 -7.42565 27.7181L-12.2659 31.2638C-15.8416 26.3825 -19.2596 22.1354 -22.4737 18.5913L-18.0292 14.5606ZM2.02406 41.5061C4.89755 45.9527 7.82297 50.6988 10.7812 55.7098L5.61443 58.76C2.69293 53.8113 -0.190072 49.1345 -3.01529 44.7626L2.02406 41.5061ZM19.0377 70.2276C21.6398 74.9682 24.2545 79.8857 26.8693 84.9579L21.5363 87.7072C18.9441 82.6789 16.3538 77.8075 13.7779 73.1147L19.0377 70.2276ZM34.331 99.8544C36.7201 104.761 39.0997 109.78 41.46 114.895L36.012 117.409C33.6688 112.331 31.3071 107.349 28.9366 102.481L34.331 99.8544ZM48.2801 130.07C50.4832 135.103 52.6607 140.208 54.8041 145.372L49.2627 147.672C47.1339 142.544 44.9715 137.474 42.7836 132.476L48.2801 130.07ZM61.0364 160.797C63.0582 165.942 65.0398 171.128 66.9733 176.343L61.3477 178.429C59.4278 173.251 57.46 168.101 55.4521 162.991L61.0364 160.797ZM72.605 192.007C74.433 197.258 76.2054 202.523 77.9145 207.789L72.2075 209.641C70.5119 204.416 68.7531 199.192 66.9386 193.98L72.605 192.007ZM82.8775 223.688C84.4821 229.046 86.0128 234.39 87.4613 239.707L81.6723 241.284C80.2375 236.018 78.7207 230.721 77.1298 225.41L82.8775 223.688ZM91.622 255.85C92.9499 261.324 94.1793 266.754 95.3006 272.121L89.4274 273.348C88.32 268.047 87.1048 262.68 85.7911 257.264L91.622 255.85ZM98.417 288.526C99.371 294.136 100.189 299.656 100.86 305.066L94.9051 305.804C94.2467 300.491 93.442 295.06 92.502 289.532L98.417 288.526ZM102.469 321.73C102.855 327.482 103.042 333.074 103.012 338.477L97.0123 338.443C97.0414 333.2 96.8601 327.754 96.4824 322.132L102.469 321.73ZM102.128 355.333C101.506 361.245 100.548 366.86 99.2168 372.12L93.4 370.649C94.6508 365.705 95.5645 360.377 96.1605 354.705L102.128 355.333ZM93.3752 388.23C92.0573 390.874 90.5897 393.374 88.9638 395.715L84.036 392.292C85.4852 390.205 86.8072 387.957 88.0052 385.554L93.3752 388.23ZM88.9638 395.715C87.5235 397.788 86.1407 399.847 84.8136 401.891L79.7812 398.624C81.1431 396.526 82.5608 394.415 84.036 392.292L88.9638 395.715ZM77.178 414.577C74.7112 419.028 72.5041 423.416 70.5362 427.749L65.0731 425.268C67.109 420.785 69.3883 416.255 71.9301 411.668L77.178 414.577ZM65.0414 441.411C63.3767 446.161 61.9858 450.857 60.8406 455.511L55.0144 454.077C56.2054 449.237 57.651 444.357 59.3791 439.427L65.0414 441.411ZM58.0284 469.947C57.3183 474.853 56.856 479.732 56.6088 484.598L50.6165 484.293C50.8727 479.251 51.3522 474.187 52.0903 469.087L58.0284 469.947ZM56.4848 499.349C56.6409 504.261 56.9829 509.177 57.4774 514.116L51.5072 514.714C51.0008 509.656 50.6487 504.602 50.4878 499.54L56.4848 499.349ZM59.3591 528.848C60.1003 533.703 60.9535 538.591 61.8876 543.528L55.9922 544.644C55.0479 539.652 54.1819 534.692 53.4278 529.753L59.3591 528.848ZM64.8323 558.179C65.8472 563.004 66.9064 567.88 67.9833 572.829L62.1205 574.105C61.0439 569.157 59.9806 564.262 58.9608 559.414L64.8323 558.179ZM71.1554 587.512C72.1842 592.351 73.2034 597.263 74.188 602.256L68.3013 603.417C67.3242 598.462 66.3114 593.58 65.2866 588.76L71.1554 587.512ZM76.9434 617.084C77.3698 619.546 77.783 622.028 78.1802 624.533L72.2543 625.473C71.8618 622.998 71.4534 620.543 71.0315 618.108L76.9434 617.084ZM78.013 623.915C79.0018 626.456 79.9304 628.973 80.8 631.466L75.1346 633.442C74.2889 631.017 73.385 628.567 72.4215 626.091L78.013 623.915ZM85.4648 646.696C86.8726 652.053 87.997 657.29 88.8506 662.408L82.9324 663.395C82.1101 658.466 81.0249 653.407 79.6619 648.221L85.4648 646.696ZM90.6699 678.325C91.0021 683.857 91.0008 689.231 90.685 694.447L84.696 694.084C84.9968 689.116 84.9989 683.983 84.6807 678.685L90.6699 678.325ZM88.6484 710.463C87.5844 715.864 86.1596 721.064 84.4013 726.058L78.7418 724.066C80.4038 719.344 81.7529 714.424 82.7615 709.303L88.6484 710.463ZM77.9153 740.877C75.3743 745.679 72.4988 750.246 69.3227 754.578L64.4838 751.031C67.4916 746.928 70.211 742.608 72.6122 738.071L77.9153 740.877ZM58.8871 766.907C55.1553 770.751 51.1601 774.358 46.935 777.728L43.1937 773.037C47.2285 769.819 51.0344 766.382 54.5821 762.727L58.8871 766.907ZM33.7901 787.009C29.2813 789.825 24.5864 792.417 19.7355 794.785L17.1034 789.393C21.775 787.112 26.2871 784.621 30.6121 781.92L33.7901 787.009ZM5.00927 801.117C0.0477382 802.981 -5.03376 804.636 -10.2086 806.081L-11.822 800.302C-6.81011 798.903 -1.89466 797.302 2.89872 795.5L5.00927 801.117ZM-25.7774 809.744C-30.9875 810.749 -36.263 811.554 -41.5793 812.156L-42.2552 806.195C-37.091 805.609 -31.9694 804.828 -26.9143 803.852L-25.7774 809.744ZM-57.5135 813.354C-60.1727 813.453 -62.8363 813.503 -65.5012 813.503L-65.5012 807.503C-62.911 807.503 -60.3222 807.455 -57.7377 807.358L-57.5135 813.354Z" fill="#4262B1" fill-opacity="0.3"/>
</svg>
