<svg width="352" height="459" viewBox="0 0 352 459" fill="none" xmlns="http://www.w3.org/2000/svg">
<path d="M91.0012 279.499L91.0012 277.999L91.0012 279.499ZM256.287 403.226C256.713 403.936 256.483 404.857 255.773 405.284L244.201 412.236C243.491 412.662 242.569 412.432 242.142 411.722C241.716 411.012 241.946 410.09 242.656 409.664L252.943 403.485L246.764 393.198C246.337 392.488 246.567 391.566 247.277 391.14C247.987 390.713 248.909 390.943 249.335 391.653L256.287 403.226ZM148.452 99.3523C147.64 99.5175 146.848 98.9933 146.683 98.1816C146.517 97.3698 147.042 96.5778 147.853 96.4126L148.452 99.3523ZM131.613 102.18C132.357 101.814 133.256 102.121 133.621 102.864C133.987 103.607 133.681 104.506 132.938 104.872L131.613 102.18ZM118.642 113.433C117.963 113.908 117.028 113.743 116.553 113.065C116.078 112.386 116.243 111.451 116.921 110.975L118.642 113.433ZM103.52 121.527C104.143 120.982 105.091 121.046 105.636 121.67C106.181 122.294 106.117 123.242 105.493 123.787L103.52 121.527ZM93.3489 135.37C92.7734 135.966 91.8238 135.983 91.2279 135.407C90.6319 134.832 90.6152 133.882 91.1906 133.286L93.3489 135.37ZM79.8365 145.971C80.366 145.334 81.3118 145.246 81.9488 145.776C82.5859 146.306 82.6731 147.251 82.1436 147.888L79.8365 145.971ZM71.8772 161.173C71.3942 161.847 70.457 162.001 69.784 161.518C69.1109 161.035 68.9568 160.098 69.4397 159.424L71.8772 161.173ZM60.0282 173.604C60.4602 172.897 61.3834 172.674 62.0903 173.106C62.7972 173.538 63.02 174.461 62.5879 175.168L60.0282 173.604ZM54.4319 189.812C54.06 190.553 53.1585 190.851 52.4182 190.48C51.6779 190.108 51.3792 189.206 51.751 188.466L54.4319 189.812ZM44.8577 204.054C45.1518 203.279 46.0181 202.89 46.7925 203.184C47.567 203.478 47.9564 204.344 47.6623 205.119L44.8577 204.054ZM42.7771 221.073C42.5942 221.881 41.7909 222.388 40.9829 222.205C40.1749 222.022 39.6682 221.218 39.8512 220.41L42.7771 221.073ZM37.7343 237.457C37.7404 236.628 38.417 235.962 39.2454 235.968C40.0738 235.974 40.7404 236.65 40.7342 237.479L37.7343 237.457ZM43.2794 253.578C43.5651 254.355 43.1663 255.217 42.3887 255.503C41.6111 255.789 40.7491 255.39 40.4634 254.612L43.2794 253.578ZM50.2676 269.037C49.6459 268.49 49.5858 267.542 50.1333 266.92C50.6808 266.298 51.6287 266.238 52.2504 266.786L50.2676 269.037ZM66.3521 274.576C67.1387 274.836 67.5655 275.684 67.3054 276.471C67.0454 277.257 66.1969 277.684 65.4104 277.424L66.3521 274.576ZM82.3294 280.664C81.5037 280.597 80.8883 279.874 80.9549 279.048C81.0216 278.222 81.745 277.607 82.5707 277.674L82.3294 280.664ZM99.0671 278.147C99.8949 278.179 100.541 278.876 100.509 279.703C100.478 280.531 99.781 281.177 98.9532 281.145L99.0671 278.147ZM114.544 282.473C113.723 282.359 113.151 281.601 113.266 280.78C113.38 279.96 114.138 279.388 114.959 279.502L114.544 282.473ZM130.6 282.842C131.393 283.081 131.842 283.918 131.603 284.711C131.363 285.504 130.526 285.953 129.733 285.714L130.6 282.842ZM143.898 291.751C143.182 291.334 142.941 290.415 143.358 289.7C143.775 288.984 144.694 288.742 145.409 289.16L143.898 291.751ZM158.03 299.264C158.592 299.873 158.555 300.822 157.946 301.384C157.338 301.946 156.389 301.909 155.827 301.3L158.03 299.264ZM164.694 313.875C164.295 313.149 164.561 312.237 165.287 311.838C166.013 311.439 166.925 311.704 167.324 312.43L164.694 313.875ZM174.058 326.902C174.374 327.668 174.009 328.545 173.243 328.86C172.477 329.176 171.6 328.811 171.284 328.045L174.058 326.902ZM177.256 342.699C176.933 341.936 177.289 341.055 178.051 340.732C178.814 340.409 179.695 340.765 180.018 341.527L177.256 342.699ZM186.781 355.631C187.184 356.355 186.923 357.268 186.199 357.671C185.475 358.073 184.562 357.813 184.159 357.088L186.781 355.631ZM193.067 370.407C192.546 369.763 192.647 368.818 193.292 368.298C193.936 367.778 194.881 367.878 195.401 368.523L193.067 370.407ZM206.255 379.584C206.889 380.117 206.972 381.063 206.439 381.697C205.906 382.331 204.96 382.414 204.326 381.881L206.255 379.584ZM217.486 391.072C216.769 390.656 216.526 389.738 216.942 389.022C217.358 388.305 218.276 388.062 218.992 388.478L217.486 391.072ZM232.95 395.308C233.716 395.623 234.082 396.5 233.767 397.266C233.451 398.032 232.575 398.398 231.809 398.083L232.95 395.308ZM246.857 403.341C246.062 403.106 245.608 402.272 245.843 401.477C246.077 400.683 246.911 400.229 247.706 400.463L246.857 403.341ZM156.501 98.4974C153.913 98.4974 151.224 98.7881 148.452 99.3523L147.853 96.4126C150.799 95.8132 153.689 95.4974 156.501 95.4974L156.501 98.4974ZM132.938 104.872C128.244 107.181 123.453 110.065 118.642 113.433L116.921 110.975C121.837 107.533 126.761 104.568 131.613 102.18L132.938 104.872ZM105.493 123.787C101.385 127.376 97.3203 131.257 93.3489 135.37L91.1906 133.286C95.217 129.116 99.343 125.176 103.52 121.527L105.493 123.787ZM82.1436 147.888C78.5776 152.179 75.1413 156.624 71.8772 161.173L69.4397 159.424C72.7453 154.818 76.2251 150.316 79.8365 145.971L82.1436 147.888ZM62.5879 175.168C59.624 180.018 56.89 184.918 54.4319 189.812L51.751 188.466C54.2488 183.493 57.0237 178.52 60.0282 173.604L62.5879 175.168ZM47.6623 205.119C45.5971 210.557 43.9478 215.903 42.7771 221.073L39.8512 220.41C41.057 215.085 42.7499 209.604 44.8577 204.054L47.6623 205.119ZM40.7342 237.479C40.6908 243.338 41.5061 248.751 43.2794 253.578L40.4634 254.612C38.5426 249.384 37.6888 243.603 37.7343 237.457L40.7342 237.479ZM52.2504 266.786C55.9214 270.019 60.576 272.666 66.3521 274.576L65.4104 277.424C59.3022 275.404 54.2801 272.571 50.2676 269.037L52.2504 266.786ZM82.5707 277.674C85.233 277.888 88.0415 277.999 91.0012 277.999L91.0012 280.999C87.9671 280.999 85.0778 280.886 82.3294 280.664L82.5707 277.674ZM91.0012 277.999C93.7902 277.999 96.4773 278.049 99.0671 278.147L98.9532 281.145C96.4034 281.048 93.7543 280.999 91.0012 280.999L91.0012 277.999ZM114.959 279.502C120.756 280.312 125.941 281.436 130.6 282.842L129.733 285.714C125.24 284.358 120.207 283.265 114.544 282.473L114.959 279.502ZM145.409 289.16C150.42 292.082 154.541 295.488 158.03 299.264L155.827 301.3C152.533 297.734 148.643 294.518 143.898 291.751L145.409 289.16ZM167.324 312.43C169.859 317.045 172.005 321.92 174.058 326.902L171.284 328.045C169.245 323.097 167.149 318.343 164.694 313.875L167.324 312.43ZM180.018 341.527C182.023 346.255 184.198 350.984 186.781 355.631L184.159 357.088C181.505 352.314 179.283 347.479 177.256 342.699L180.018 341.527ZM195.401 368.523C198.491 372.351 202.058 376.058 206.255 379.584L204.326 381.881C199.974 378.225 196.273 374.379 193.067 370.407L195.401 368.523ZM218.992 388.478C223.164 390.9 227.793 393.187 232.95 395.308L231.809 398.083C226.534 395.913 221.782 393.567 217.486 391.072L218.992 388.478ZM247.706 400.463C250.162 401.188 252.714 401.882 255.364 402.543L254.638 405.454C251.948 404.783 249.356 404.078 246.857 403.341L247.706 400.463ZM91.0012 279.499L91.0011 276.499L91.0012 279.499ZM257.573 402.453C258.426 403.874 257.966 405.717 256.546 406.57L233.4 420.473C231.98 421.326 230.137 420.866 229.284 419.446C228.431 418.026 228.891 416.183 230.311 415.33L250.884 402.971L238.526 382.398C237.673 380.977 238.133 379.134 239.553 378.281C240.973 377.428 242.816 377.888 243.67 379.308L257.573 402.453ZM148.751 100.822C147.127 101.153 145.543 100.104 145.213 98.4806C144.882 96.8571 145.931 95.2731 147.554 94.9427L148.751 100.822ZM130.951 100.834C132.438 100.103 134.236 100.715 134.967 102.202C135.699 103.688 135.087 105.486 133.6 106.218L130.951 100.834ZM119.502 114.662C118.145 115.612 116.274 115.282 115.324 113.925C114.374 112.568 114.704 110.697 116.061 109.747L119.502 114.662ZM102.533 120.398C103.78 119.308 105.676 119.435 106.766 120.683C107.856 121.931 107.728 123.826 106.48 124.916L102.533 120.398ZM94.428 136.412C93.2772 137.604 91.3779 137.637 90.186 136.487C88.994 135.336 88.9607 133.437 90.1115 132.245L94.428 136.412ZM78.6829 145.012C79.742 143.738 81.6335 143.563 82.9077 144.622C84.1818 145.681 84.3562 147.573 83.2971 148.847L78.6829 145.012ZM73.0959 162.048C72.1299 163.394 70.2556 163.702 68.9095 162.736C67.5633 161.77 67.2551 159.896 68.221 158.55L73.0959 162.048ZM58.7483 172.822C59.6123 171.408 61.4588 170.962 62.8725 171.826C64.2863 172.69 64.7319 174.537 63.8678 175.951L58.7483 172.822ZM55.7723 190.486C55.0286 191.966 53.2255 192.564 51.7449 191.82C50.2644 191.076 49.667 189.273 50.4106 187.793L55.7723 190.486ZM43.4554 203.521C44.0436 201.972 45.7761 201.193 47.3251 201.782C48.874 202.37 49.6528 204.102 49.0646 205.651L43.4554 203.521ZM44.2401 221.404C43.8742 223.02 42.2676 224.033 40.6517 223.668C39.0357 223.302 38.0223 221.695 38.3882 220.079L44.2401 221.404ZM36.2343 237.445C36.2466 235.789 37.5997 234.456 39.2565 234.468C40.9133 234.48 42.2465 235.833 42.2342 237.49L36.2343 237.445ZM44.6873 253.06C45.2588 254.615 44.4613 256.339 42.9061 256.911C41.3509 257.482 39.6269 256.685 39.0555 255.13L44.6873 253.06ZM49.2762 270.163C48.0328 269.068 47.9126 267.172 49.0076 265.929C50.1027 264.685 51.9984 264.565 53.2418 265.66L49.2762 270.163ZM66.823 273.151C68.3961 273.672 69.2497 275.368 68.7296 276.941C68.2095 278.515 66.5126 279.368 64.9395 278.848L66.823 273.151ZM82.2087 282.159C80.5572 282.026 79.3265 280.579 79.4598 278.927C79.5931 277.276 81.0399 276.045 82.6914 276.178L82.2087 282.159ZM99.1241 276.649C100.78 276.711 102.071 278.105 102.008 279.76C101.945 281.416 100.552 282.707 98.8962 282.644L99.1241 276.649ZM114.336 283.959C112.695 283.73 111.551 282.214 111.78 280.573C112.009 278.932 113.525 277.787 115.166 278.017L114.336 283.959ZM131.033 281.406C132.619 281.884 133.517 283.558 133.039 285.144C132.56 286.73 130.886 287.628 129.3 287.15L131.033 281.406ZM143.142 293.047C141.711 292.212 141.227 290.375 142.062 288.944C142.897 287.513 144.734 287.029 146.165 287.864L143.142 293.047ZM159.132 298.247C160.256 299.464 160.181 301.362 158.964 302.486C157.747 303.61 155.849 303.535 154.725 302.318L159.132 298.247ZM163.38 314.597C162.582 313.145 163.112 311.321 164.564 310.523C166.017 309.725 167.841 310.256 168.638 311.708L163.38 314.597ZM175.445 326.33C176.076 327.862 175.346 329.616 173.814 330.247C172.282 330.878 170.529 330.148 169.898 328.616L175.445 326.33ZM175.875 343.284C175.228 341.759 175.94 339.998 177.466 339.351C178.991 338.704 180.752 339.416 181.399 340.942L175.875 343.284ZM188.092 354.902C188.897 356.351 188.376 358.177 186.928 358.982C185.479 359.787 183.653 359.265 182.848 357.817L188.092 354.902ZM191.899 371.349C190.859 370.06 191.06 368.172 192.349 367.131C193.639 366.09 195.527 366.291 196.568 367.581L191.899 371.349ZM207.22 378.435C208.489 379.501 208.653 381.393 207.587 382.662C206.522 383.931 204.629 384.095 203.361 383.03L207.22 378.435ZM216.733 392.369C215.3 391.537 214.813 389.701 215.645 388.269C216.477 386.836 218.313 386.349 219.746 387.181L216.733 392.369ZM233.52 393.921C235.053 394.551 235.784 396.304 235.154 397.837C234.524 399.369 232.771 400.1 231.238 399.47L233.52 393.921ZM246.433 404.779C244.843 404.31 243.935 402.642 244.404 401.053C244.873 399.464 246.541 398.556 248.13 399.024L246.433 404.779ZM156.501 99.9974C154.025 99.9974 151.437 100.276 148.751 100.822L147.554 94.9427C150.586 94.3257 153.577 93.9974 156.501 93.9974L156.501 99.9974ZM133.6 106.218C128.986 108.488 124.261 111.33 119.502 114.662L116.061 109.747C121.03 106.268 126.019 103.261 130.951 100.834L133.6 106.218ZM106.48 124.916C102.406 128.476 98.3719 132.327 94.428 136.412L90.1115 132.245C94.1654 128.046 98.322 124.076 102.533 120.398L106.48 124.916ZM83.2971 148.847C79.7539 153.11 76.3393 157.528 73.0959 162.048L68.221 158.55C71.5473 153.914 75.0489 149.384 78.6829 145.012L83.2971 148.847ZM63.8678 175.951C60.9242 180.767 58.2106 185.631 55.7723 190.486L50.4106 187.793C52.9282 182.78 55.7235 177.771 58.7483 172.822L63.8678 175.951ZM49.0646 205.651C47.0207 211.034 45.3932 216.311 44.2401 221.404L38.3882 220.079C39.6116 214.676 41.3262 209.128 43.4554 203.521L49.0646 205.651ZM42.2342 237.49C42.1918 243.206 42.9879 248.435 44.6873 253.06L39.0555 255.13C37.0609 249.701 36.1877 243.735 36.2343 237.445L42.2342 237.49ZM53.2418 265.66C56.742 268.743 61.2129 271.297 66.823 273.151L64.9395 278.848C58.6653 276.774 53.4595 273.847 49.2762 270.163L53.2418 265.66ZM82.6914 276.178C85.3106 276.39 88.0787 276.499 91.0011 276.499L91.0012 282.499C87.9298 282.499 85.0002 282.384 82.2087 282.159L82.6914 276.178ZM91.0011 276.499C93.8081 276.499 96.5143 276.549 99.1241 276.649L98.8962 282.644C96.3665 282.548 93.7364 282.499 91.0012 282.499L91.0011 276.499ZM115.166 278.017C121.03 278.836 126.292 279.975 131.033 281.406L129.3 287.15C124.89 285.819 119.933 284.741 114.336 283.959L115.166 278.017ZM146.165 287.864C151.308 290.863 155.545 294.364 159.132 298.247L154.725 302.318C151.528 298.858 147.754 295.737 143.142 293.047L146.165 287.864ZM168.638 311.708C171.214 316.396 173.385 321.332 175.445 326.33L169.898 328.616C167.865 323.685 165.794 318.992 163.38 314.597L168.638 311.708ZM181.399 340.942C183.393 345.643 185.545 350.319 188.092 354.902L182.848 357.817C180.159 352.979 177.914 348.092 175.875 343.284L181.399 340.942ZM196.568 367.581C199.6 371.337 203.1 374.974 207.22 378.435L203.361 383.03C198.932 379.309 195.163 375.393 191.899 371.349L196.568 367.581ZM219.746 387.181C223.855 389.567 228.422 391.824 233.52 393.921L231.238 399.47C225.904 397.276 221.091 394.901 216.733 392.369L219.746 387.181ZM248.13 399.024C250.566 399.743 253.096 400.431 255.727 401.087L254.275 406.909C251.565 406.233 248.952 405.523 246.433 404.779L248.13 399.024Z" fill="#4262B1" fill-opacity="0.3"/>
<path fill-rule="evenodd" clip-rule="evenodd" d="M193.049 12.2352C202.153 6.94567 213.343 7.03813 222.361 12.4774C231.29 18.0275 236.717 27.9328 236.667 38.588C236.459 49.1734 230.64 59.1237 223.365 66.8157C219.167 71.2754 214.47 75.2188 209.371 78.5655C208.846 78.8692 208.271 79.0725 207.674 79.1654C207.099 79.1409 206.54 78.9711 206.046 78.6714C198.261 73.6427 191.432 67.2238 185.886 59.7235C181.245 53.4627 178.609 45.8987 178.334 38.0588C178.328 27.3831 183.946 17.5248 193.049 12.2352ZM198.31 42.4766C199.841 46.2518 203.456 48.7143 207.466 48.7143C210.093 48.7332 212.618 47.6809 214.479 45.792C216.34 43.903 217.382 41.3343 217.373 38.6582C217.387 34.5735 214.982 30.8829 211.281 29.3099C207.58 27.7368 203.314 28.5914 200.473 31.4748C197.633 34.3581 196.779 38.7013 198.31 42.4766Z" fill="#ED5E15" fill-opacity="0.3"/>
<ellipse opacity="0.4" cx="207.501" cy="87.4987" rx="20.8333" ry="4.16667" fill="#ED5E15" fill-opacity="0.3"/>
<path fill-rule="evenodd" clip-rule="evenodd" d="M287.049 342.235C296.153 336.946 307.343 337.038 316.361 342.477C325.29 348.028 330.718 357.933 330.667 368.588C330.459 379.173 324.64 389.124 317.365 396.816C313.167 401.275 308.47 405.219 303.371 408.566C302.846 408.869 302.271 409.072 301.674 409.165C301.099 409.141 300.54 408.971 300.046 408.671C292.261 403.643 285.432 397.224 279.886 389.724C275.245 383.463 272.609 375.899 272.334 368.059C272.328 357.383 277.946 347.525 287.049 342.235ZM292.31 372.477C293.841 376.252 297.456 378.714 301.466 378.714C304.093 378.733 306.618 377.681 308.479 375.792C310.34 373.903 311.382 371.334 311.373 368.658C311.387 364.573 308.982 360.883 305.281 359.31C301.58 357.737 297.314 358.591 294.473 361.475C291.633 364.358 290.779 368.701 292.31 372.477Z" fill="#4262B1" fill-opacity="0.3"/>
<ellipse opacity="0.4" cx="301.501" cy="417.499" rx="20.8333" ry="4.16667" fill="#4262B1" fill-opacity="0.3"/>
</svg>
