<svg width="95" height="81" viewBox="0 0 95 81" fill="none" xmlns="http://www.w3.org/2000/svg">
<path d="M71.1495 38.4559C71.1495 38.4559 79.6227 34.4975 82.5609 30.6755" stroke="#E3FB73" stroke-width="4.54586" stroke-linecap="round"/>
<path d="M60.5556 27.2503C60.5556 27.2503 66.5162 20.0437 67.5339 15.3314" stroke="#E3FB73" stroke-width="4.54586" stroke-linecap="round"/>
<path d="M76.4608 50.9859C76.4608 50.9859 85.5412 48.7479 90.2277 49.8784" stroke="#E3FB73" stroke-width="4.54586" stroke-linecap="round"/>
<path d="M11.231 28.2511C11.231 28.2511 17.8864 34.8214 22.4912 36.2489" stroke="#E3FB73" stroke-width="4.54586" stroke-linecap="round"/>
<path d="M5.99998 48.1592C5.99998 48.1592 15.0335 50.5797 19.7418 49.5438" stroke="#E3FB73" stroke-width="4.54586" stroke-linecap="round"/>
<path d="M48.1134 24.7677C48.1134 24.7677 48.8796 15.447 47.0185 10.9998" stroke="#E3FB73" stroke-width="4.54586" stroke-linecap="round"/>
<path d="M32.555 27.9731C32.555 27.9731 30.2357 18.9131 27.0245 15.3173" stroke="#E3FB73" stroke-width="4.54586" stroke-linecap="round"/>
<circle cx="48.0491" cy="51.1345" r="18.7517" fill="#E3FB73"/>
<path d="M25.8882 59.1911L33.5577 52.8164C35.4525 51.2415 38.2008 51.2415 40.0956 52.8164L44.4962 56.474C46.3909 58.0489 49.1393 58.0489 51.034 56.474L55.4346 52.8164C57.3294 51.2415 60.0777 51.2415 61.9725 52.8164L69.642 59.1911" stroke="#4262B1" stroke-width="4.54586" stroke-linecap="round"/>
<path d="M25.8882 69.8083L31.3574 65.2624L33.5577 63.4336C35.4525 61.8587 38.2008 61.8587 40.0956 63.4336L44.4962 67.0912C46.3909 68.6661 49.1393 68.6661 51.034 67.0912L55.4346 63.4336C57.3294 61.8587 60.0777 61.8587 61.9725 63.4336L64.1728 65.2624L69.642 69.8083" stroke="#4262B1" stroke-width="4.54586" stroke-linecap="round"/>
</svg>
